<svg width="120" height="72" viewBox="0 0 120 72" fill="none" xmlns="http://www.w3.org/2000/svg">
<g clip-path="url(#clip0)">
<path d="M118.684 23.333C118.162 23.8547 117.647 24.49 117.127 25.0593V23.7013C117.662 23.6568 118.213 23.4527 118.684 23.333Z" fill="#010626"/>
<path d="M118.876 21.039C118.815 21.174 118.748 21.306 118.676 21.4349C118.295 22.1254 117.765 22.7214 117.127 23.1796V22.4369L117.136 22.4292C117.144 22.4243 117.151 22.4186 117.157 22.4123L117.279 22.3157L117.323 22.2804C117.432 22.1929 117.581 22.0748 117.752 21.9367L117.864 21.8477C117.978 21.7541 118.103 21.6574 118.228 21.5546L118.4 21.4195L118.876 21.039Z" fill="#010626"/>
<path d="M117.452 21.2415C117.42 21.2953 117.391 21.349 117.359 21.4027C117.28 21.5454 117.207 21.6881 117.127 21.8292V21.4042L117.452 21.2415Z" fill="#010626"/>
<path d="M119.114 20.4421C119.048 20.639 118.972 20.8321 118.885 21.0206V21.0206L118.395 21.418C118.34 21.4656 118.284 21.5101 118.229 21.5531C118.105 21.6559 117.98 21.7525 117.866 21.8461L117.753 21.9351C117.583 22.0732 117.434 22.1914 117.324 22.2789L117.28 22.3142L117.159 22.4108C117.152 22.4171 117.145 22.4228 117.137 22.4277L117.128 22.4354V21.9351C117.157 21.8966 117.174 21.8509 117.178 21.8032C117.28 21.6638 117.389 21.5301 117.505 21.4027C117.613 21.283 117.726 21.1664 117.84 21.0528C118.229 20.8595 118.711 20.6262 119.114 20.4421Z" fill="#010626"/>
<path d="M110.624 15.7252L110.539 15.8464L110.624 15.7252Z" fill="#010626"/>
<path d="M13.7609 25.4567L13.5419 24.1678L13.0857 25.156C13.0989 25.1622 13.1116 25.1694 13.1237 25.1774C13.3108 25.2818 13.4963 25.3923 13.6773 25.5012C13.8856 25.627 14.0864 25.7513 14.2749 25.871V25.6608L13.7609 25.4567ZM117.077 21.9275L117.127 21.8323V14.5129L117.099 14.4331C117.054 14.295 117.005 14.1585 116.955 14.0219L114.587 15.9891L114.574 15.9998L114.209 16.3067C114.274 16.0259 114.338 15.7466 114.405 15.4674V15.4428L114.557 14.7876L114.202 14.9641L114.189 14.9717C114.003 15.0638 113.819 15.1589 113.635 15.2541L113.617 15.2648C113.349 15.406 113.083 15.5518 112.822 15.7052C111.823 16.2914 110.872 16.9942 110.153 17.9179C109.785 18.3905 109.59 18.992 109.227 19.4524C108.959 19.7869 108.545 19.9787 108.162 20.1751C108.03 20.2426 107.899 20.3101 107.779 20.3853V19.8789C105.65 20.4099 103.492 21.3091 101.071 21.0528C99.7649 20.7849 98.4858 20.3972 97.2496 19.8943C95.8475 19.3787 94.3191 19.5076 92.7893 19.1271C92.1302 18.879 91.4924 18.5768 90.8823 18.2233C89.354 17.1952 88.0797 16.0382 86.4236 15.2664C85.2755 14.7523 84.1289 14.7523 83.0111 14.5574L84.8284 14.2429C84.0026 13.7242 83.2377 13.0813 82.3451 13.0813C80.9445 12.9524 79.6701 13.0813 78.268 13.2148L78.8885 12.0977C78.0125 12.6946 77.1214 13.3375 76.101 13.3375C75.3559 13.3795 74.6143 13.4051 73.8762 13.4143C71.4431 13.4557 69.0267 13.359 66.6042 13.2731C65.2355 13.2255 63.8669 13.1826 62.4891 13.1703L63.2495 12.4552C62.4739 12.6946 61.709 12.8235 61.0718 12.6946C59.288 12.4383 58.0137 10.5095 56.1021 11.1525C55.4649 11.2798 54.4461 11.4087 54.3183 10.5095C53.8089 10.5095 53.2994 10.7658 52.7885 11.0236C52.1513 11.4087 51.5157 11.9228 50.9271 12.1422C51.4594 11.2921 51.9911 10.442 52.5224 9.59192C48.3298 9.09475 44.125 8.58071 39.7925 8.32292C39.4093 8.32292 39.1553 8.7096 38.8496 8.99962L39.4153 8.23239L37.4871 8.99962L38.4512 7.85951C37.2438 7.55262 36.0971 7.42372 35.0767 6.90968C34.3164 7.29483 33.4207 7.03704 32.7014 7.45748C33.0775 7.20992 33.4541 6.9639 33.8313 6.71941C29.3437 5.75116 24.8834 5.10822 20.484 3.88219L18.0858 0.93909L16.4237 0L15.6025 1.53446L15.528 2.69758L14.5623 1.55594L13.4096 0.931419L12.7177 2.18967L12.9854 6.03964C11.0799 7.51272 8.68022 9.5689 7.88489 10.4635C7.03329 11.4287 6.93748 12.2726 6.8432 13.0613C6.89795 13.0491 6.95573 13.0383 7.01656 13.0276H7.05458L7.15951 13.0107L7.31158 12.9923L7.41195 12.9815H7.49254H7.55185C8.09887 12.9436 8.64751 13.0268 9.15925 13.2255C10.6206 13.8194 14.573 15.5487 15.934 16.3988C17.2951 17.2489 18.3398 17.4729 19.2978 17.7721C20.2559 18.0714 20.9706 18.8739 21.4831 19.4186C21.9956 19.9633 24.2204 19.0626 25.2499 19.1286C26.2794 19.1946 26.7782 19.6902 27.2496 19.859C27.7211 20.0278 34.8654 17.2504 37.0187 19.859C39.172 22.4676 41.5915 23.1842 42.4933 23.3376C42.7973 23.3644 43.1035 23.3561 43.4057 23.3131L43.5775 23.2931L43.8117 23.2686C43.8665 23.2686 43.9212 23.2563 43.976 23.2517L44.128 23.2364L44.2923 23.221H44.3409C45.115 23.152 45.8723 23.1704 46.2585 23.5939C46.9824 24.4087 46.5779 24.9519 47.5359 25.4091C48.4575 25.8403 50.8739 26.4833 51.2784 26.6367L51.3028 26.6459C50.6808 27.0878 50.0086 27.5451 49.3699 27.9702C48.0241 28.8356 46.8486 29.5982 46.5961 29.7517H46.5779C42.8126 29.9051 39.2146 29.6166 38.255 29.5645C37.7988 29.5476 36.8438 29.5123 35.6501 29.4632L35.4645 28.6653L35.1969 29.4463C32.3379 29.2929 28.5057 28.986 27.461 28.3093C25.7213 27.1967 23.8896 26.2376 21.9865 25.4429L21.3782 23.7964L20.7881 24.9503L20.5205 25.4751V25.4828L20.8505 25.9355L20.3684 26.7411V26.7533L20.5509 27.5697L19.7297 28.0776V28.0898L19.8909 28.7036C20.7884 29.2647 21.6516 29.8796 22.4761 30.545H22.4852C23.2076 31.125 23.9634 31.7864 24.7359 32.5398C26.6626 34.421 29.8349 36.2072 33.334 37.6173C34.5506 38.1068 35.8067 38.5518 37.0628 38.94L35.0859 40.6141L35.0661 40.631L28.7339 45.9955C28.7339 45.9955 28.1986 46.4144 28.1438 47.4716C28.1073 48.1621 28.2776 49.1258 28.9331 50.4224C29.3726 51.2894 29.9231 52.339 30.4979 53.4161H36.015C34.9368 51.8817 33.7887 50.2398 34.0199 49.7534C34.1795 49.4143 35.314 48.4844 36.7115 47.4716C38.7614 45.9878 41.3801 44.3229 42.329 44.0835C43.9258 43.6815 44.125 44.3536 44.125 44.3536L45.8206 42.8099L46.8501 42.1716L47.3185 40.9103L47.4432 40.5727C47.9469 40.5408 48.4473 40.4685 48.9396 40.3563C48.9396 40.3717 48.9532 40.387 48.9609 40.4039C49.5098 41.6422 50.8146 44.6666 51.7331 47.4716C52.1787 48.8281 52.5315 50.1324 52.6668 51.1543C52.7515 51.9147 52.8876 52.6684 53.0744 53.41H70.5626C70.5268 53.0558 70.3834 52.7213 70.152 52.4525C69.5072 51.8034 68.8655 51.3354 68.2891 51.3124C69.3719 48.845 69.2396 49.3713 70.6675 47.4655C70.7694 47.3305 70.8804 47.1816 70.999 47.019C71.8902 45.862 72.7828 44.7035 74.2092 44.1234C75.504 47.5581 77.4393 50.7105 79.9104 53.41H89.4681C88.2515 51.1221 87.3269 48.7498 87.2661 47.4655C87.2509 47.108 87.3011 46.8364 87.4318 46.6722C87.5961 45.9571 88.3367 45.4093 88.4963 44.6927L89.2035 45.9003C89.6886 44.7971 90.1843 43.703 90.5721 42.5568C90.9599 41.4105 91.2534 40.2811 91.6062 39.1472C91.5819 39.3497 91.4389 40.2765 91.81 39.9405C92.0852 39.6919 92.1704 39.0045 92.2555 38.6623C92.3346 38.3441 92.4031 38.0234 92.4608 37.7002C92.4614 37.6946 92.4614 37.6889 92.4608 37.6833C92.47 37.6388 92.4776 37.5974 92.4837 37.5529C92.4844 37.5422 92.4844 37.5314 92.4837 37.5207C92.5065 37.3841 92.5277 37.2444 92.546 37.1063C92.767 35.2465 92.8179 33.3702 92.6981 31.501C92.9475 32.1792 93.1979 32.8564 93.4493 33.5326C93.4615 33.5694 93.4752 33.6062 93.4888 33.6431L93.5405 33.7812C93.5527 33.706 93.5679 33.6277 93.5846 33.551C93.685 33.0815 93.8477 32.5812 93.942 32.0856C94.0102 31.7724 94.0307 31.4506 94.0028 31.1312C93.9888 30.9852 93.9576 30.8415 93.9101 30.703C93.7306 30.1829 93.6987 29.7317 93.6211 29.1947C93.5436 28.6576 93.3885 28.1528 93.317 27.6234C93.3166 27.6188 93.3166 27.6142 93.317 27.6096C93.3602 27.6507 93.3995 27.6959 93.4341 27.7446V27.7446C94.0424 28.3906 94.9548 28.5579 95.3183 29.4003C95.5023 29.9573 95.6863 30.545 95.884 31.1296C96.0984 31.7603 96.3295 32.3879 96.5926 32.971L97.6571 31.4519C98.2152 32.5551 98.5817 33.7443 99.0607 34.886C99.1991 35.222 99.3497 35.5535 99.5169 35.8772C99.5489 35.4998 99.5656 35.1223 99.5762 34.7433C99.6082 33.5387 99.5762 32.3326 99.739 31.1373C100.309 32.1654 101.057 33.0861 101.611 34.1218C101.664 34.1588 101.711 34.2051 101.748 34.2584C101.829 34.3655 101.87 34.498 101.865 34.6328C101.887 34.4806 101.927 34.3317 101.985 34.1893C102.137 33.7827 102.393 33.3837 102.519 32.9802C102.577 32.8086 102.602 32.6273 102.593 32.4462C102.591 32.407 102.586 32.3681 102.578 32.3296C102.485 31.7449 102.034 31.2723 101.909 30.6892C102.165 31.0295 102.46 31.3385 102.786 31.6099C103.102 31.8791 103.463 32.09 103.851 32.2329C104.321 32.3863 104.839 32.305 105.384 32.2329C105.718 32.1785 106.056 32.1574 106.394 32.17H106.453L106.391 32.124C105.953 31.7986 105.515 31.4718 105.078 31.1434C105.484 31.1618 105.89 31.1741 106.295 31.1941C106.565 31.2079 106.836 31.2232 107.107 31.2447C107.461 31.2739 107.82 31.3184 108.171 31.3276H108.342C108.529 31.3272 108.716 31.3113 108.901 31.28C109.545 31.1695 110.157 30.8012 110.747 30.5327L112.651 29.6642L111.304 29.2883C111.456 29.1701 111.608 29.0458 111.76 28.9108L111.774 28.897V28.9108L111.841 28.8433L111.891 28.788C111.905 28.7788 111.917 28.7665 111.931 28.7558C112.449 28.7261 112.962 28.6365 113.46 28.4888C114.494 28.162 115.323 27.2889 116.284 26.8009H114.155C114.572 26.5815 115.036 26.494 115.475 26.3406C115.922 26.1646 116.324 25.891 116.654 25.5396C116.806 25.3861 116.958 25.2235 117.118 25.0562V23.6982C116.894 23.7205 116.668 23.7039 116.45 23.6491C116.418 23.6491 116.386 23.6307 116.354 23.6215L116.515 23.5417C116.727 23.4348 116.93 23.3127 117.124 23.1765V21.9351C117.095 21.9747 117.059 22.0081 117.017 22.0333C117.034 21.9996 117.051 21.9673 117.069 21.9351C117.074 21.9305 117.074 21.9259 117.077 21.9244V21.9275ZM63.4046 47.4716C63.3438 47.7095 63.286 47.9458 63.2267 48.1821C63.3544 50.3672 63.6753 49.3038 62.7857 51.3661H62.5743C61.1113 51.3446 60.1138 51.4106 60.0909 51.2756C60.0742 51.1758 59.2606 49.1641 58.9291 47.4747C58.8163 46.9842 58.7748 46.4797 58.8059 45.9771C58.9839 44.3444 58.5626 43.7183 58.5626 43.7183L59.2713 42.3542C59.2713 42.3542 58.5216 40.9226 58.2235 39.9865C61.3607 40.1308 63.438 40.2934 65.3967 40.6141C64.6151 42.8391 63.9885 45.1423 63.4046 47.4716Z" fill="#010626"/>
<path d="M66.5996 13.2731C66.4476 13.359 66.2879 13.448 66.1343 13.5416C65.9807 13.6352 65.8149 13.7427 65.6583 13.8485C65.5762 13.9038 65.4926 13.9606 65.412 14.0204C65.3314 14.0802 65.2873 14.1079 65.2264 14.1539L65.1686 14.1984L65.009 14.3181L64.901 14.404L64.7489 14.5206C64.6653 14.5866 64.5817 14.6557 64.4995 14.7262L64.4402 14.7769C64.3459 14.8567 64.2532 14.9303 64.1619 15.0178L64.0099 15.1528L63.8578 15.2925L63.6616 15.4812L63.5095 15.6224C63.4609 15.6684 63.4137 15.716 63.3666 15.7635L63.2465 15.8848C63.1491 15.9845 63.0533 16.0842 62.9606 16.1824C62.9195 16.2239 62.8815 16.2668 62.8435 16.3083C62.8055 16.3497 62.734 16.4249 62.6823 16.4832L62.5545 16.6244C62.4968 16.6888 62.4405 16.7517 62.3857 16.8162C62.3513 16.8551 62.3178 16.8934 62.2854 16.9313C62.0704 17.1799 61.8677 17.4243 61.6771 17.6647C61.6284 17.7261 61.5798 17.786 61.525 17.8489C61.4976 17.8811 61.4718 17.9164 61.4444 17.9517C61.417 17.987 61.3562 18.0637 61.3152 18.1189C61.2908 18.1486 61.268 18.1778 61.2467 18.2064C61.2194 18.2432 61.1905 18.2785 61.1646 18.3154C61.0582 18.4535 60.9578 18.5885 60.8605 18.7205L60.7662 18.8478C60.3328 19.4478 59.9967 19.948 59.7792 20.2641C59.761 20.2887 59.7458 20.3132 59.7306 20.3347C59.6657 20.4377 59.5914 20.5343 59.5086 20.6232C59.2728 20.8089 58.1642 21.5055 56.9705 22.3019C57.0044 22.0543 57.0212 21.8046 57.0207 21.5546C57.0203 19.8303 56.3425 18.1766 55.1359 16.9556C53.9293 15.7346 52.2923 15.0461 50.5835 15.0408C50.3467 15.0408 50.1101 15.0542 49.8748 15.0807L49.7136 15.1007L49.5996 15.116C48.0747 15.3535 46.6844 16.1339 45.6802 17.316C44.6761 18.4981 44.1244 20.0038 44.125 21.5607C44.1231 22.1154 44.1983 22.6675 44.3486 23.2011H44.2999L44.1357 23.2164L43.9836 23.2318C43.9289 23.2318 43.8741 23.241 43.8194 23.2486L43.5852 23.2732L43.4133 23.2931C43.1111 23.3362 42.805 23.3444 42.5009 23.3177C41.5885 23.1642 39.1721 22.4691 37.0263 19.8391C34.8806 17.209 27.75 20.0263 27.2573 19.8391C26.7646 19.6519 26.281 19.1777 25.2576 19.1087C24.2341 19.0396 21.9956 19.9572 21.4907 19.3987C20.9859 18.8401 20.2468 18.0407 19.3055 17.7522C18.3642 17.4637 17.286 17.2274 15.9417 16.3789C14.5974 15.5303 10.6283 13.7994 9.1669 13.2056C8.65115 13.0062 8.09818 12.9239 7.54734 12.9647H7.48803H7.40743L7.30706 12.9754L7.15499 12.9938L7.05006 13.0107H7.01205C6.95122 13.0215 6.89343 13.0322 6.83868 13.0445C6.93297 12.2558 7.02877 11.4118 7.88037 10.4466C8.67571 9.5459 11.0739 7.49586 12.9808 6.02278L12.7178 2.18969L13.4036 0.93911L14.5563 1.56364L15.522 2.70528L15.5965 1.54215L16.4177 0.00769043L18.0798 0.94678L20.4734 3.88221C24.8728 5.10978 29.3331 5.75118 33.8207 6.71943C33.4435 6.96494 33.0669 7.21097 32.6908 7.4575C33.4101 7.03706 34.3027 7.29485 35.0661 6.9097C36.0865 7.42374 37.2332 7.55264 38.4406 7.85953L37.4765 8.99964L39.4047 8.23241L38.839 8.99964C39.1432 8.70962 39.3987 8.32294 39.7819 8.32294C44.1144 8.58073 48.3192 9.09017 52.5118 9.59194C51.9805 10.442 51.4488 11.2921 50.9165 12.1422C51.505 11.9228 52.1407 11.4087 52.7779 11.0236C53.2888 10.7658 53.7983 10.5095 54.3077 10.5095C54.4355 11.4087 55.4543 11.2768 56.0915 11.1525C58.003 10.5095 59.2774 12.4384 61.0612 12.6946C61.6984 12.8235 62.4633 12.6946 63.2389 12.4552L62.4785 13.1703C63.8639 13.1826 65.2325 13.2255 66.5996 13.2731Z" fill="#0378A6"/>
<path d="M50.5333 29.4494C55.0257 29.4494 58.6676 25.7746 58.6676 21.2416C58.6676 16.7085 55.0257 13.0337 50.5333 13.0337C46.0408 13.0337 42.399 16.7085 42.399 21.2416C42.399 25.7746 46.0408 29.4494 50.5333 29.4494Z" fill="url(#paint0_radial)"/>
<path d="M113.623 15.2571L113.495 16.1609L113.126 16.721L113.041 18.2984L112.521 18.4519L112.638 19.2989L112.285 20.1828L112.788 20.7751L112.18 21.3014V22.9893L111.81 23.31L111.996 24.0235C111.307 24.5667 110.617 25.1421 109.928 25.7114L109.595 25.4429L109.899 24.5867V24.5775L109.313 23.8102L109.578 22.7883V22.7745L109.04 22.621L108.77 20.3807L108.299 22.0103L108.115 21.7034L107.746 23.5018H107.393V24.2997L107.002 24.9994V25.0071L107.385 25.6961L106.819 26.0812V26.0935L107.017 26.8116L106.561 27.4009V28.5717C106.026 29.0185 105.452 29.4155 104.846 29.7578L104.628 29.3849L104.964 28.5548L104.307 27.8075L104.023 26.7042L103.656 27.6126V28.4259L103.083 29.6642L103.2 30.3609L103.012 30.4069L102.881 30.4376L102.77 30.4637L102.546 30.5112C102.47 30.5266 102.394 30.5435 102.317 30.5573C102.239 30.5711 102.164 30.5849 102.096 30.5987C102.028 30.6125 101.929 30.6309 101.844 30.6447L101.682 30.6708L101.565 30.6892C101.485 30.703 101.403 30.7168 101.32 30.7276L101.053 30.7659L100.848 30.7951L100.469 30.8427C100.335 30.8595 100.201 30.8749 100.066 30.8887C99.9306 30.9025 99.8013 30.9163 99.6675 30.9301C99.5337 30.9439 99.4013 30.9562 99.266 30.967L99.1307 30.9792L98.7733 31.0069H98.7262L98.2699 31.0375L97.8137 31.0652L97.6449 31.0744C97.3408 31.0897 97.0407 31.1025 96.7447 31.1127L96.3128 31.125C96.1866 31.125 96.0619 31.125 95.9387 31.125H95.9007C95.703 30.5404 95.519 29.9527 95.335 29.3957C94.9776 28.5533 94.0606 28.3875 93.4508 27.74C93.4167 27.6914 93.3774 27.6466 93.3337 27.6065V27.6188C93.4006 28.1482 93.5557 28.6622 93.6378 29.1901C93.72 29.7179 93.7473 30.1782 93.9268 30.6984C93.9744 30.8369 94.0055 30.9806 94.0195 31.1265L93.7078 31.1173H93.5557H93.5466L93.1756 31.1005H93.1436L92.8395 31.0836C92.7498 31.0836 92.6631 31.0713 92.5794 31.0652L92.33 31.0483L92.1035 31.0253L91.8936 31.0023L92.0457 30.7613L92.0548 30.7475L91.4328 30.1537L90.7607 28.5594V28.5793C90.7226 28.7328 90.4672 29.8069 90.3044 30.5435C90.1625 30.479 90.0287 30.4146 89.903 30.3501L89.7768 30.2872C89.6353 30.2151 89.4985 30.1445 89.3601 30.0816L89.1882 30.0049C89.1305 29.9803 89.0727 29.9558 89.0118 29.9343L88.8826 29.8898C88.8532 29.879 88.8232 29.8697 88.7929 29.8622L88.7183 29.8407C88.6666 29.8269 88.6165 29.8131 88.5663 29.8038C88.5161 29.7946 88.4598 29.7808 88.4036 29.7716L88.2332 29.7501C88.1861 29.7501 88.1359 29.7409 88.0812 29.7394C87.9616 29.7331 87.8418 29.7331 87.7223 29.7394H87.6189H87.5991H87.5018L87.3999 29.7486L87.2965 29.7578C85.4716 29.9803 79.0101 30.0125 78.6725 29.7578C75.0228 26.893 69.8281 26.1794 63.692 25.8234C57.5559 25.4675 57.8068 27.3671 52.9816 28.8433C51.1674 29.3849 48.8635 29.6397 46.5946 29.7256C46.847 29.5721 48.0226 28.8049 49.3684 27.9441C50.0071 27.5206 50.6792 27.0618 51.3012 26.6198C52.3946 25.8741 53.3359 25.179 53.6705 24.7877C54.2103 24.1739 55.655 23.1765 56.9841 22.2942C58.1779 21.4978 59.2865 20.8012 59.5222 20.6155C59.605 20.5266 59.6794 20.43 59.7442 20.327L59.7929 20.2564C60.0103 19.9403 60.3464 19.4401 60.7798 18.8416L60.8741 18.7128C60.9714 18.5808 61.0718 18.4458 61.1782 18.3077C61.2041 18.2708 61.233 18.2355 61.2604 18.1987C61.2877 18.1619 61.3045 18.1404 61.3288 18.1112C61.3698 18.056 61.414 18.0008 61.4581 17.944L61.5386 17.8412C61.5873 17.7783 61.636 17.7184 61.6907 17.657C61.8844 17.4156 62.0871 17.1711 62.299 16.9236C62.3304 16.8857 62.3639 16.8474 62.3994 16.8085L62.5682 16.6167L62.6959 16.4755C62.7476 16.4172 62.8024 16.3589 62.8571 16.3006C62.9119 16.2423 62.9331 16.2162 62.9742 16.1763C63.067 16.0765 63.1628 15.9768 63.2601 15.8771L63.3802 15.7558C63.4274 15.7083 63.4745 15.6607 63.5232 15.6147L63.6752 15.4735L63.8714 15.2878L64.0235 15.1467L64.1756 15.0116C64.2668 14.9303 64.3596 14.8505 64.4539 14.7707L64.5132 14.7201C64.5953 14.6495 64.6789 14.582 64.7626 14.5145L64.9146 14.3978L65.0226 14.3119L65.1823 14.1922L65.2401 14.1477L65.4256 14.0142C65.5062 13.9559 65.5898 13.8991 65.6719 13.8424C65.824 13.7365 65.9867 13.6337 66.1479 13.5355C66.3091 13.4373 66.4521 13.3529 66.6133 13.2654C69.0358 13.3513 71.4476 13.448 73.8853 13.4081C73.9796 13.4664 74.0739 13.5293 74.1682 13.5938L74.3005 13.6859C74.3674 13.7334 74.4358 13.7825 74.5012 13.8393C74.5666 13.8961 74.6396 13.9436 74.708 13.9927C74.7354 14.0142 74.7643 14.0357 74.7932 14.0603C74.8221 14.0848 74.851 14.1063 74.8783 14.1309C74.9392 14.1784 74.9985 14.2291 75.0578 14.2843C75.1171 14.3395 75.1779 14.3886 75.2387 14.4377C75.2996 14.4868 75.3437 14.5298 75.3908 14.5789C75.438 14.628 75.4851 14.6679 75.5338 14.7139C75.6372 14.8121 75.7406 14.9119 75.8379 15.0208C81.133 20.3915 80.2921 21.5009 85.1143 21.8047C89.9364 22.1085 89.6034 22.6026 90.344 23.4174C91.0846 24.2322 97.505 26.4541 100.685 26.2669C103.865 26.0797 106.267 25.5549 107.478 21.9413C107.516 21.8277 107.554 21.7172 107.593 21.6052C107.633 21.4932 107.686 21.349 107.733 21.2231C107.78 21.0973 107.834 20.9592 107.885 20.8288C107.901 20.7889 107.917 20.749 107.934 20.7091C108.01 20.5219 108.086 20.3362 108.165 20.1567C108.553 19.9603 108.967 19.7685 109.23 19.4339C109.593 18.9736 109.788 18.3782 110.156 17.8995C110.875 16.9788 111.829 16.273 112.825 15.6868C113.085 15.5441 113.355 15.3983 113.623 15.2571Z" fill="#011640"/>
<path d="M51.3043 26.6275C50.6823 27.0694 50.0101 27.5267 49.3714 27.9518C48.0256 28.8172 46.8501 29.5798 46.5977 29.7333H46.5794C42.8141 29.8867 39.2161 29.5982 38.2566 29.5461C37.8003 29.5292 36.8453 29.4939 35.6516 29.4448L35.466 28.6469L35.1984 29.4279C32.3395 29.2745 28.5073 28.9676 27.4625 28.2909C25.7228 27.1782 23.8912 26.2192 21.988 25.4245L21.3797 23.778L20.7897 24.9319C20.6604 24.8782 20.5296 24.8276 20.3988 24.7785C20.2148 24.7064 20.0278 24.6342 19.8438 24.5652C19.423 24.4056 19.0043 24.2522 18.5877 24.1049L18.2744 23.9959C18.171 23.9606 18.0676 23.9238 17.9626 23.89C17.6585 23.7842 17.3437 23.6829 17.0365 23.5831L16.1241 23.2977C15.8676 23.219 15.6142 23.1433 15.3637 23.0706L14.9897 22.9617L14.6156 22.8558L14.3586 22.7852L14.0012 22.687L13.6499 22.5934C13.5328 22.5612 13.4172 22.532 13.3017 22.5029L12.8835 22.3939H12.8667L12.7436 22.3632L12.6219 22.3326C12.2873 22.2482 11.9619 22.1699 11.6441 22.0947L11.3932 22.0364L10.9035 21.9244C10.4595 21.8246 10.0367 21.7326 9.64283 21.6513L9.52725 21.6282L9.3326 21.5822H9.29763L9.07864 21.5392L8.86574 21.4963L8.80644 21.484L8.67414 21.4594L8.54487 21.4349L8.19815 21.3689C7.97005 21.3259 7.75715 21.2891 7.56402 21.2538L7.42259 21.2293H7.4089L7.27508 21.2078L7.1367 21.1832H7.08955L7.00743 21.1694L6.94509 21.1602L6.80214 21.1219L6.62117 21.0942L6.5421 21.082L6.49039 21.0743L6.41588 21.0636L6.33984 21.0513L6.2927 21.0436L6.22731 21.0344H6.19385H6.16496V21.0237C5.52626 20.9715 2.59889 20.7336 0.136856 20.5633C0.0121577 20.3316 -0.0380257 20.1306 0.0395306 19.9894C0.343673 19.4324 4.69747 16.3589 6.16496 14.7999C6.18017 14.783 6.19689 14.7661 6.21058 14.7492C6.38028 14.5836 6.51932 14.3888 6.62117 14.1738C6.7364 13.8121 6.81038 13.4384 6.84168 13.0598C6.89642 13.0475 6.95421 13.0368 7.01504 13.026H7.05306L7.15799 13.0092L7.31006 12.9908L7.41042 12.98H7.49102H7.55033C8.09735 12.942 8.64598 13.0253 9.15772 13.224C10.6191 13.8178 14.5715 15.5472 15.9325 16.3973C17.2935 17.2473 18.3383 17.4714 19.2963 17.7706C20.2544 18.0698 20.9691 18.8723 21.4816 19.4171C21.9941 19.9618 24.2189 19.0611 25.2484 19.1271C26.2779 19.193 26.7767 19.6887 27.2481 19.8575C27.7195 20.0263 34.8638 17.2489 37.0172 19.8575C39.1705 22.4661 41.59 23.1826 42.4917 23.3361C42.7958 23.3628 43.1019 23.3546 43.4042 23.3115L43.576 23.2916L43.8102 23.267C43.8649 23.267 43.9197 23.2548 43.9744 23.2502L44.1265 23.2348L44.2907 23.2195H44.3394C45.1134 23.1504 45.8708 23.1688 46.257 23.5923C46.9809 24.4071 46.5764 24.9503 47.5344 25.4076C48.456 25.8388 50.8724 26.4817 51.2769 26.6352L51.3043 26.6275Z" fill="#023859"/>
<path d="M20.5509 27.5666L19.7297 28.0745V28.0868L19.8909 28.7006C17.2798 27.0832 15.5052 26.6766 15.5052 26.6766C15.5052 26.6766 14.982 26.3129 14.2886 25.871V25.6608L13.767 25.4567L13.548 24.1678L13.0918 25.156C12.2691 24.6956 11.4479 24.2951 11.0145 24.2951C9.95 24.2951 7.93962 25.8373 6.80973 25.983C6.6736 26.0012 6.53547 25.9971 6.40065 25.9707C6.31899 25.9565 6.23863 25.9354 6.16038 25.9078C5.27229 25.6009 4.50585 24.5974 4.46631 24.4071C4.41765 24.1724 5.81214 22.9479 5.03049 22.5796C4.24885 22.2113 2.00732 22.5796 2.00732 22.5796C2.00732 22.5796 0.66909 21.4625 0.182462 20.6385C0.165734 20.6124 0.152048 20.5863 0.136841 20.5602C2.59887 20.7244 5.52625 20.9623 6.16494 21.0206V21.0313H6.19384H6.22729L6.29268 21.0405L6.33983 21.0482L6.41586 21.0605L6.49038 21.0712L6.54208 21.0789L6.62116 21.0912L6.80212 21.1188L6.94507 21.1433L7.00742 21.1525L7.08954 21.1664H7.13668L7.27506 21.1909L7.40889 21.2124H7.42257L7.564 21.2369C7.75713 21.2722 7.97003 21.3091 8.19814 21.352L8.54486 21.418L8.67412 21.4426L8.80642 21.4671L8.86573 21.4794L9.07863 21.5223L9.29761 21.5653H9.33259L9.52268 21.6052L9.63825 21.6282C10.0321 21.7096 10.4549 21.8016 10.8989 21.9014L11.3886 22.0134L11.6395 22.0717C11.9573 22.1469 12.2828 22.2251 12.6173 22.3095L12.739 22.3402L12.8622 22.3709H12.8789L13.2971 22.4798C13.4127 22.509 13.5282 22.5382 13.6453 22.5704L13.9966 22.664L14.354 22.7622L14.611 22.8328L14.9851 22.9387L15.3592 23.0476C15.6116 23.1213 15.8651 23.197 16.1195 23.2747L17.032 23.5601C17.3361 23.6599 17.6478 23.7611 17.9581 23.867C18.063 23.9008 18.1664 23.9376 18.2698 23.9729L18.5831 24.0818C18.9998 24.2271 19.4185 24.3805 19.8392 24.5422C20.0232 24.6112 20.2102 24.6833 20.3942 24.7555C20.525 24.8061 20.6558 24.8567 20.7851 24.9089L20.5174 25.4337V25.4414L20.8474 25.894L20.3654 26.6996V26.7119L20.5509 27.5666Z" fill="#010626"/>
<path d="M19.8954 28.7082L19.7343 28.0945L19.8954 28.7082Z" fill="#010626"/>
<path d="M20.5524 27.5604L20.5509 27.562L20.3684 26.7457L20.3715 26.7426L20.5524 27.5604Z" fill="#010626"/>
<path d="M20.8566 25.9155L20.8505 25.9247L20.5205 25.4721L20.5251 25.4644L20.8566 25.9155Z" fill="#010626"/>
<path d="M110.624 15.7252L110.539 15.8464L110.624 15.7252Z" fill="#011640"/>
<path d="M114.563 14.7799L114.411 15.4352V15.4597L114.201 14.9641L114.215 14.9564L114.563 14.7799Z" fill="#011640"/>
<path d="M117.127 14.5099V21.4042C117.025 21.4066 116.924 21.4143 116.823 21.4272L116.693 21.4456L116.616 21.4594C116.596 21.4617 116.576 21.4652 116.557 21.4702L116.515 21.4778C116.447 21.4917 116.376 21.5085 116.304 21.527C116.198 21.5546 116.088 21.5868 115.979 21.6221L115.869 21.6589L115.758 21.7003L115.647 21.7433L115.536 21.7893L115.424 21.8384H115.408C115.241 21.4472 115.056 21.0068 115.104 20.9055C115.189 20.7183 114.969 19.7516 114.969 19.7516L114.382 18.8017L114.969 17.479L114.569 15.9906L114.583 15.9799L116.95 14.0127C117.001 14.1493 117.049 14.2858 117.095 14.4255L117.127 14.5099Z" fill="#011640"/>
<path d="M108.164 20.1613C108.085 20.3408 108.012 20.5265 107.933 20.7137C107.916 20.7536 107.899 20.7935 107.884 20.8334C107.832 20.9638 107.78 21.0943 107.732 21.2278C107.683 21.3613 107.639 21.4809 107.592 21.6098C107.545 21.7387 107.514 21.8323 107.476 21.9459C106.26 25.5595 103.862 26.0889 100.683 26.2715C97.505 26.4541 91.0663 24.2368 90.3425 23.422C89.6186 22.6072 89.9395 22.0993 85.1127 21.8093C80.286 21.5193 81.1285 20.4022 75.8364 15.0255C75.735 14.9232 75.6336 14.8209 75.5323 14.7186C75.4836 14.6725 75.4365 14.6265 75.3893 14.5835C75.3422 14.5406 75.2859 14.4869 75.2372 14.4424C75.1886 14.3979 75.1171 14.3334 75.0563 14.2889C74.9954 14.2444 74.9377 14.1861 74.8768 14.1355C74.8495 14.1109 74.819 14.0879 74.7917 14.0649C74.7643 14.0419 74.7339 14.0189 74.7065 13.9974C74.6381 13.9421 74.5681 13.89 74.4997 13.8439C74.4313 13.7979 74.3659 13.7442 74.299 13.6905L74.1545 13.603C74.0602 13.5386 73.9659 13.4757 73.8716 13.4173C74.6107 13.4051 75.3513 13.3805 76.0964 13.3391C77.1168 13.3391 78.008 12.6961 78.8839 12.0992L78.2604 13.2148C79.6625 13.0813 80.9369 12.9524 82.3374 13.0813C83.2301 13.0813 83.995 13.7242 84.8208 14.2429L83.0035 14.5574C84.1212 14.7523 85.2679 14.7523 86.416 15.2664C88.0721 16.0336 89.3464 17.1952 90.8747 18.2233C91.4872 18.5771 92.1276 18.8794 92.7893 19.1271C94.3191 19.5122 95.8475 19.3849 97.2495 19.8943C98.4858 20.3972 99.7649 20.785 101.071 21.0528C103.492 21.3091 105.658 20.4099 107.779 19.879V20.3715C107.901 20.2963 108.031 20.2288 108.164 20.1613Z" fill="#0378A6"/>
<path d="M110.624 15.7252L110.539 15.8464L110.624 15.7252Z" fill="#0378A6"/>
<path d="M90.3106 30.5465C90.2087 30.9378 90.1418 31.2417 90.1418 31.2601C90.1418 31.2785 90.1418 31.2601 90.1418 31.2601C90.0035 31.2791 89.8633 31.2791 89.7251 31.2601V32.0411V32.0503L89.3616 32.6165L89.7281 33.307C89.7262 33.3115 89.7237 33.3157 89.7205 33.3193C89.6612 33.396 89.3206 33.8426 89.2749 33.9331C89.2613 34.0451 89.7312 34.5361 89.7312 34.5361L89.722 34.55L89.1944 35.2834V36.7427V36.7596L89.1016 36.9913L88.6454 38.1513L88.7473 38.693V38.7099H88.7397L88.7001 38.7206L88.6667 38.7314L88.6378 38.7406H88.6119C88.5663 38.7544 88.5222 38.7682 88.4766 38.7789L88.2622 38.8403C88.1299 38.8756 87.9945 38.9109 87.8561 38.9447L87.8181 38.9539L87.6082 39.003L87.4562 39.0352L87.2813 39.072L87.1672 39.095L87.0638 39.1134C87.0045 39.1257 86.9422 39.1349 86.8814 39.1457L86.5955 39.1902C86.4905 39.207 86.3826 39.2209 86.2731 39.2316C86.2138 39.2316 86.1544 39.2469 86.0921 39.2516L85.94 39.2669H85.8731L85.721 39.2792L85.5294 39.2899C81.9482 39.4771 79.5272 42.3588 73.3561 41.8678C67.1851 41.3768 68.2678 39.6889 65.2933 37.4854C63.9977 36.5187 62.5028 36.1458 60.9882 36.1274V34.9581L60.6019 34.5331V33.5664L60.1457 33.0017L59.9936 32.8191L60.5152 32.2805L60.5989 32.193C60.5989 32.193 60.3297 31.3782 60.2446 31.2723C60.1594 31.1665 59.7747 29.7609 59.7747 29.7609L59.2515 30.9424L59.0341 32.1976L58.3391 32.5996L58.4912 32.8467L58.8638 33.4605L58.7634 33.6277L58.511 34.0543L58.6052 34.2292L58.8638 34.7157L58.7543 34.8446L58.1734 35.5305L58.292 35.7269L58.6615 36.3407L58.4836 36.3744C58.3634 36.3974 58.2433 36.422 58.1247 36.4481L57.9392 36.488L57.6639 36.5509L57.3948 36.6169L57.2853 36.643L57.2427 36.6537L57.1773 36.6706L56.8731 36.7534L56.5994 36.8332L56.7849 36.5785L56.6663 36.3131L56.6009 36.1427L56.1447 35.7161L55.982 35.5627L56.604 35.087L56.3865 34.4257V33.6584L55.906 31.8877V30.3946L55.0148 29.4739L54.5495 30.9424L54.0279 31.6713L54.332 32.9096L53.8758 33.2487V34.0635C53.8758 34.0635 53.3709 34.9627 53.2356 35.064C53.1672 35.1192 53.2356 35.2711 53.3177 35.4185C53.389 35.5373 53.4683 35.6511 53.555 35.7591L53.5413 35.8144L53.2371 37.0143L53.3481 37.1677L53.8773 37.869L53.8363 37.8889L53.6584 37.9764L53.4363 38.0854L52.9984 38.3079H52.9908C52.8493 38.38 52.7049 38.4613 52.5619 38.5319L52.4509 38.5902L52.4099 38.6117C52.0829 38.7851 51.7575 38.9631 51.4366 39.1365L51.2191 39.2546C50.8268 39.4664 50.4421 39.6735 50.074 39.8684L49.922 39.9451L49.6984 40.0571C49.6254 40.0955 49.5464 40.1308 49.4779 40.1676L49.2209 40.2919L48.9563 40.4147C48.9563 40.3993 48.9411 40.3824 48.935 40.3671C48.4427 40.4792 47.9424 40.5516 47.4386 40.5835L47.314 40.921H47.2851L47.133 40.9364C47.0813 40.9364 47.0296 40.9471 46.9809 40.9502C46.8121 40.9655 46.6342 40.9747 46.4456 40.9855C46.3331 40.9855 46.2175 40.9962 46.1004 40.9993C45.9119 40.9993 45.7172 41.0116 45.5165 41.0146C45.2458 41.0146 44.9645 41.0146 44.677 41.0146L44.4763 40.5098L44.1235 39.9651L44.4763 39.2362L43.2156 37.9641L43.7372 36.979L43.2993 36.2839V34.596L42.913 33.0354L42.7609 34.3244L42.0386 34.1372V35.8005L41.1809 35.9356L41.3832 36.9713L41.0638 37.869L41.149 38.8035L40.9802 39.583V40.9395L39.5674 40.8904C39.096 40.8735 38.5927 40.8382 38.0711 40.8213L38.2064 40.2075L37.6848 39.359L37.7502 39.1579L37.8703 38.7835L37.2468 37.9519L37.4993 36.9683L36.9777 35.9325L37.1297 35.1192L36.5929 34.2108L36.9123 33.0738L36.3739 32.0733L36.9123 31.3613L35.9375 30.5818L35.6516 29.4448C36.8454 29.4954 37.8034 29.5292 38.2566 29.5461C39.2162 29.5982 42.8187 29.8852 46.5794 29.7333H46.5977C48.8666 29.6473 51.1705 29.3926 52.9847 28.851C57.8099 27.3748 57.5575 25.4583 63.6951 25.8311C69.8327 26.204 75.0274 26.9053 78.6756 29.7655C79.0132 30.0202 85.4686 29.988 87.2995 29.7655L87.403 29.7563L87.5048 29.7471H87.6022H87.6219H87.7253C87.8449 29.7408 87.9647 29.7408 88.0842 29.7471C88.1344 29.7471 88.1846 29.7548 88.2363 29.7578L88.4066 29.7793C88.4629 29.7885 88.5176 29.7993 88.5693 29.8115C88.621 29.8238 88.6758 29.8345 88.7214 29.8484L88.7959 29.8698C88.8263 29.8774 88.8563 29.8866 88.8856 29.8975L89.0149 29.942C89.0757 29.9634 89.1335 29.988 89.1913 30.0125L89.3632 30.0893C89.5015 30.1522 89.6384 30.2228 89.7798 30.2949L89.906 30.3578C90.0318 30.4222 90.1656 30.4867 90.3075 30.5511L90.3106 30.5465Z" fill="#010626"/>
<path d="M92.4624 37.694C92.463 37.6996 92.463 37.7053 92.4624 37.7109V37.7109C91.1835 37.8137 90.0992 38.2909 88.8127 38.6976C88.7988 38.7031 88.7846 38.7077 88.7701 38.7114C90.2893 37.7217 92.1355 37.694 92.4624 37.694Z" fill="#010626"/>
<path d="M93.9557 32.0902L93.5375 33.4712L93.463 33.5433C93.2126 32.8671 92.9622 32.1899 92.7117 31.5117C92.8315 33.3809 92.7806 35.2573 92.5597 37.1171C92.5414 37.2552 92.5201 37.3948 92.4973 37.5314L92.4015 36.8486L91.7126 36.4051L92.0593 35.4844V35.4675L91.7947 34.5177L92.0639 32.549L91.4556 31.6207L91.8936 31.0069L92.1035 31.0299L92.33 31.0529L92.5794 31.0698C92.6631 31.0698 92.7498 31.0836 92.8395 31.0882L93.1436 31.1051H93.1634L93.5344 31.122H93.5436H93.6956L94.0074 31.1312C94.0387 31.4516 94.0213 31.775 93.9557 32.0902V32.0902Z" fill="#010626"/>
<path d="M101.93 30.7015C102.055 31.2831 102.507 31.7557 102.599 32.3403L102.583 32.3602L102.54 32.9909C102.414 33.3945 102.16 33.7934 102.006 34.2001L101.769 34.2707C101.732 34.2166 101.686 34.1698 101.632 34.1326V34.1326C101.079 33.0968 100.331 32.1761 99.7603 31.148C99.5991 32.3434 99.6295 33.5495 99.5976 34.754C99.4151 34.797 99.2432 34.8445 99.0805 34.8967C98.6015 33.7551 98.235 32.5659 97.6769 31.4626L96.6124 32.9817C96.3493 32.3971 96.1182 31.7695 95.9037 31.1403H95.9433C96.0665 31.1403 96.1912 31.1403 96.3174 31.1403L96.7493 31.1281C97.0473 31.1179 97.3474 31.1051 97.6495 31.0897L97.8183 31.0805L98.2745 31.0529L98.7307 31.0222H98.7779L99.1353 30.9946L99.2706 30.9823C99.4059 30.9716 99.5398 30.9578 99.6721 30.9455C99.8044 30.9332 99.9382 30.9194 100.07 30.904C100.203 30.8887 100.34 30.8749 100.473 30.858L100.852 30.8104L101.057 30.7813L101.325 30.7429C101.407 30.7322 101.489 30.7184 101.57 30.7046L101.687 30.6862L101.848 30.6601C101.933 30.6463 102.017 30.6294 102.101 30.614C102.184 30.5987 102.253 30.588 102.321 30.5726C102.39 30.5573 102.473 30.5419 102.551 30.5266L102.774 30.479L102.885 30.4529L103.016 30.4222L103.205 30.3762L102.701 31.3767L102.808 31.6314C102.481 31.3567 102.186 31.0447 101.93 30.7015Z" fill="#010626"/>
<path d="M106.569 29.1732L106.216 30.4007V30.41L106.295 31.2048C105.889 31.1849 105.483 31.1726 105.078 31.1542L106.391 32.1362V32.1807C106.061 32.1704 105.732 32.192 105.407 32.2452V32.0472L104.852 31.3675L105.239 30.4007L104.852 29.7716C105.458 29.4293 106.032 29.0323 106.567 28.5855L106.569 29.1732Z" fill="#010626"/>
<path d="M111.947 26.1856C111.947 26.27 111.561 27.4576 111.561 27.4576L111.743 28.7757L111.763 28.9169C111.611 29.0519 111.459 29.1762 111.307 29.2944C111.155 29.4125 111.03 29.5 110.887 29.6013L110.603 29.101L110.586 29.0719L110.328 28.8356L110.22 28.7374C110.22 28.7374 110.693 27.7814 110.723 27.6633V27.6556C110.723 27.6065 110.235 27.206 110.205 27.0894C110.204 27.0858 110.204 27.0822 110.205 27.0786C110.252 27.0157 110.533 26.3313 110.569 26.2408V26.2301L109.931 25.7206C110.62 25.1437 111.31 24.5682 111.999 24.0327L112.083 24.4056L111.564 25.2373C111.564 25.2373 111.947 26.1012 111.947 26.1856Z" fill="#010626"/>
<path d="M117.072 21.9351C117.054 21.9674 117.037 21.9996 117.02 22.0333C117.062 22.0086 117.099 21.9751 117.127 21.9351V22.4369L117.058 22.575C117.036 22.621 117.013 22.6671 116.988 22.7131C116.955 22.7822 116.918 22.8481 116.88 22.9172C116.878 22.9236 116.875 22.9298 116.871 22.9356C116.858 22.9648 116.842 22.9908 116.826 23.02C116.731 23.1934 116.633 23.3668 116.522 23.5371L116.36 23.6169C116.392 23.6261 116.424 23.6369 116.456 23.6445C116.394 23.7473 116.331 23.8471 116.266 23.9514C116.26 23.9598 116.254 23.9685 116.249 23.9775V23.0093L115.728 22.5489C115.728 22.5489 115.576 22.2267 115.408 21.8538V21.8369H115.424L115.536 21.7878L115.647 21.7418L115.758 21.6988L115.869 21.6574L115.979 21.6206C116.088 21.5853 116.198 21.5531 116.304 21.5254C116.376 21.507 116.447 21.4901 116.515 21.4763L116.557 21.4687C116.576 21.4637 116.596 21.4601 116.616 21.4579L116.693 21.4441L116.823 21.4257C116.924 21.4128 117.025 21.4051 117.127 21.4027V21.8277L117.077 21.9229C117.077 21.9229 117.074 21.9305 117.072 21.9351Z" fill="#010626"/>
<path d="M34.8608 30.3609L33.9362 31.3276L34.508 31.7173L34.0198 32.7178L34.289 33.2441L33.9027 33.907L34.289 35.3663H33.6807L34.0335 36.7565L33.2443 37.2475L33.3401 37.6234C29.8424 36.2133 26.6687 34.4272 24.742 32.5459C23.9694 31.791 23.2136 31.1296 22.4913 30.5511L22.4168 30.3609V29.5798L21.9332 28.6591V28.6515L22.4168 27.3579V27.3456L21.7188 26.6904H21.7112L22.2282 26.1012L21.9773 25.4414C23.8805 26.2361 25.7122 27.1951 27.4519 28.3077C28.4951 28.986 32.3288 29.2913 35.1877 29.4448L34.8608 30.3609Z" fill="#010626"/>
<path d="M56.9887 21.5623C56.9892 21.8122 56.9725 22.0619 56.9385 22.3096C55.6109 23.1919 54.1647 24.1908 53.6249 24.8046C53.2888 25.1943 52.3475 25.891 51.2541 26.6367C50.9347 26.5017 48.4301 25.8388 47.4873 25.3984C46.5444 24.958 46.9337 24.398 46.2099 23.5832C45.8236 23.1596 45.0663 23.1412 44.2938 23.2103C44.1431 22.6748 44.0694 22.1204 44.0748 21.5638C44.1008 19.8534 44.7925 18.2218 46.0004 17.0215C47.2083 15.8213 48.8357 15.1485 50.531 15.1485C52.2263 15.1485 53.8536 15.8213 55.0616 17.0215C56.2695 18.2218 56.9612 19.8534 56.9872 21.5638L56.9887 21.5623Z" fill="white"/>
<path d="M13.6849 25.5012C13.5039 25.3923 13.3184 25.2833 13.1313 25.1774L13.4948 24.3765L13.6849 25.5012Z" fill="black"/>
<path d="M22.4853 30.5434C21.6608 29.8781 20.7975 29.2632 19.9001 28.7021V28.7021L19.7389 28.0883L20.557 27.5819V27.5666L20.3746 26.7503L20.8597 25.9385L20.5297 25.4859V25.4782L20.7927 24.9611L21.3828 23.8072L21.9911 25.4536L22.2389 26.1042V26.1135L21.7265 26.6996L21.7189 26.7088L22.4199 27.3671L21.9363 28.6637V28.6729L22.4245 29.6059V30.3854L22.4853 30.5434Z" fill="black"/>
<path d="M38.2079 40.1998L38.0725 40.8136L37.5342 40.7799L35.0919 40.6264L37.0689 38.9523C35.8128 38.5641 34.5566 38.1191 33.3401 37.6296L33.2443 37.2537L34.0335 36.7626L33.6807 35.3724H34.289L33.9027 33.9131L34.289 33.2503L34.0198 32.7239L34.508 31.7235L33.9362 31.3337L34.8608 30.367L35.1984 29.4341L35.466 28.653L35.6516 29.4509L35.9375 30.588L36.9122 31.3675L36.3739 32.0795L36.9122 33.0799L36.5929 34.2108L37.1312 35.1116L36.9791 35.9248L37.5008 36.9606L37.2483 37.9442L37.8718 38.7759L37.7517 39.1503L37.6863 39.3513L38.2079 40.1998Z" fill="black"/>
<path d="M44.6801 41.0146H44.6633L41.4181 40.9471L40.9817 40.9302V39.5722L41.1505 38.7912L41.0653 37.8582L41.3847 36.959L41.1839 35.9248L42.0401 35.7898V34.1264L42.764 34.3136L42.9145 33.0231L43.3023 34.5852V36.2808L43.7387 36.9759L43.2171 37.961L44.4793 39.2331L44.125 39.962L44.4793 40.5052L44.6801 41.0146Z" fill="black"/>
<path d="M56.864 36.7856L56.68 37.0404C56.68 37.0404 54.2088 37.5836 53.9731 38.0592L53.3344 37.2107L53.6538 35.9555C53.6538 35.9555 53.1823 35.3785 53.3344 35.2589C53.4865 35.1392 53.9731 34.2584 53.9731 34.2584V33.4436L54.4293 33.1045L54.1252 31.8662L54.6468 31.1373L55.1182 29.678L56.0093 30.5987V32.0917L56.4792 33.8732V34.6405L56.6982 35.3033L56.0763 35.7775L56.6982 36.3545L56.864 36.7856Z" fill="black"/>
<path d="M60.9881 35.2911V36.4664C60.9881 36.4664 59.5936 36.2792 58.6675 36.6874H58.6508L58.1642 35.8726L58.8531 35.0578L58.5003 34.3965L58.8531 33.8026L58.3391 32.9372L59.0462 32.5306L59.2636 31.2754L59.7852 30.1046C59.7852 30.1046 60.1715 31.4963 60.2567 31.6145C60.3418 31.7326 60.6095 32.5352 60.6095 32.5352L60.0012 33.1628L60.6095 33.91V34.8768L60.9881 35.2911Z" fill="black"/>
<path d="M92.4852 37.5575C92.4852 37.602 92.4715 37.6434 92.4624 37.6879C92.463 37.6935 92.463 37.6992 92.4624 37.7048C92.1582 37.7048 90.3334 37.7324 88.8127 38.693L88.764 38.7237C88.7473 38.7237 88.7473 38.7405 88.7305 38.7405V38.7237L88.6287 38.182L89.0849 37.0051L89.1776 36.7734V35.3141V35.3049L89.7084 34.5668C89.6643 34.5208 89.2248 34.0574 89.2522 33.953C89.2522 33.953 89.2522 33.953 89.2522 33.9438C89.3252 33.818 89.6992 33.33 89.6992 33.33L89.3312 32.6395L89.3404 32.6272L89.7008 32.0641V31.283C89.7555 31.283 90.1159 31.3275 90.1159 31.283C90.1154 31.28 90.1154 31.2769 90.1159 31.2738C90.125 31.2155 90.1889 30.9286 90.2817 30.5726V30.5526C90.4505 29.7563 90.7379 28.587 90.7379 28.587L91.4298 30.1752L92.0487 30.7659L91.8967 31.0038L91.886 31.0207L91.4587 31.6191L91.4496 31.6314L92.0579 32.5643L91.7887 34.5315L92.0579 35.4829L91.7111 36.4035V36.422L92.4 36.8624L92.4852 37.5575Z" fill="black"/>
<path d="M93.5983 33.551C93.5816 33.6293 93.5664 33.7044 93.5542 33.7812C93.5375 33.7336 93.5192 33.6876 93.5025 33.6415L93.5983 33.551Z" fill="black"/>
<path d="M102.54 32.9925L102.583 32.3618L102.599 32.3419C102.607 32.3804 102.612 32.4193 102.615 32.4585C102.624 32.6396 102.598 32.8209 102.54 32.9925V32.9925Z" fill="black"/>
<path d="M105.408 32.0411V32.2391C104.864 32.3127 104.344 32.3925 103.875 32.2391C103.487 32.0962 103.127 31.8853 102.811 31.6161L102.704 31.3613L103.208 30.3609L103.091 29.6642L103.656 28.4259V27.6126L104.026 26.7119L104.31 27.8152L104.967 28.5625L104.631 29.3926L104.849 29.7655L105.236 30.3946L104.849 31.3613L105.408 32.0411Z" fill="black"/>
<path d="M106.452 32.1783H106.394V32.1331C106.411 32.1456 106.432 32.1611 106.452 32.1783Z" fill="black"/>
<path d="M110.906 29.6289L110.822 29.6949L110.72 29.7471L110.604 29.8192L108.171 31.3322C107.815 31.323 107.457 31.2785 107.107 31.2493C106.836 31.2278 106.565 31.2125 106.295 31.1987L106.216 30.4084L106.569 29.1916V27.427L107.025 26.8331V26.8239L106.827 26.1042L107.396 25.7176V25.7068L107.002 25.0133L107.385 24.3243V23.5279H107.738L108.107 21.728L108.291 22.0349L108.763 20.4068L109.032 22.6456L109.566 22.799L109.3 23.824V23.8332L109.885 24.6005L109.581 25.4536V25.4659L109.917 25.7375L110.551 26.2424C110.551 26.2424 110.238 27.0096 110.183 27.0878C110.183 27.1876 110.673 27.5881 110.703 27.6587C110.703 27.7231 110.247 28.6376 110.203 28.7328C110.202 28.7358 110.202 28.739 110.203 28.742L110.3 28.831L110.573 29.0811V29.0934L110.868 29.6074L110.877 29.6182L110.906 29.6289Z" fill="black"/>
<path d="M116.269 23.0139V23.9974L116.236 24.0327L116.176 24.0972L111.918 28.765L111.889 28.7957L111.839 28.851L111.772 28.9185V28.9047L111.756 28.7758L111.573 27.4592C111.573 27.4592 111.961 26.2715 111.961 26.1871C111.961 26.1027 111.573 25.2373 111.573 25.2373L112.095 24.3887L112.011 24.0159L111.826 23.3023L112.195 22.9816V21.2937L112.803 20.7674L112.299 20.1751L112.653 19.2913L112.534 18.4442L113.056 18.2908L113.141 16.7134L113.511 16.1533L113.64 15.2403C113.824 15.1436 114.008 15.05 114.193 14.9564L114.207 14.9487L114.408 15.4275V15.452C114.341 15.7313 114.277 16.0106 114.212 16.2914L114.577 15.9845L114.59 15.9738L114.995 17.4729L114.406 18.7956L114.995 19.7455C114.995 19.7455 115.212 20.7122 115.129 20.8994C115.078 21.0006 115.261 21.4364 115.433 21.82V21.8369C115.6 22.2098 115.751 22.532 115.751 22.532L116.269 23.0139Z" fill="black"/>
<path d="M47.3185 40.9164L46.8501 42.1777L45.8206 42.8145L44.125 44.3536C44.125 44.3536 43.9258 43.6815 42.329 44.0851C41.3801 44.3229 38.7614 45.9878 36.7115 47.4716C35.314 48.4844 34.1795 49.4143 34.0198 49.7534C33.7887 50.2398 34.9323 51.8817 36.015 53.4161H30.4979C29.923 52.342 29.3726 51.2894 28.9331 50.4224C28.2776 49.1258 28.1073 48.1621 28.1438 47.4716C28.1986 46.4144 28.7339 45.997 28.7339 45.997L35.0722 40.6371C35.8569 40.6893 36.7024 40.7369 37.5342 40.7768L38.0725 40.8105C38.5942 40.8274 39.0975 40.8627 39.5689 40.8796L40.9817 40.9287L41.4181 40.9471C42.4948 40.9809 43.6201 41.0146 44.6633 41.0146H44.68C44.9675 41.0146 45.2488 41.0146 45.5195 41.0146C45.7202 41.0146 45.9149 41.0069 46.1034 40.9993C46.2205 40.9993 46.3361 40.9901 46.4486 40.9855C46.6372 40.9747 46.8151 40.9655 46.9839 40.9502C47.0371 40.9502 47.0904 40.9502 47.136 40.9364L47.2881 40.921L47.3185 40.9164Z" fill="#00010D"/>
<path d="M88.805 38.693C88.7912 38.6985 88.7769 38.7031 88.7625 38.7068C88.7457 38.7068 88.7457 38.7237 88.7305 38.7237H88.7229L88.6834 38.7344L88.6499 38.7451L88.621 38.7543H88.5952C88.5496 38.7682 88.5055 38.782 88.4598 38.7927L88.2454 38.8541C88.1131 38.8894 87.9778 38.9247 87.8394 38.9584L87.8014 38.9676L87.5915 39.0167L87.4394 39.049L87.2646 39.0858L87.1505 39.1088L87.0471 39.1272C86.9878 39.1395 86.9254 39.1487 86.8646 39.1594L86.5787 39.204C86.4738 39.2208 86.3658 39.2346 86.2563 39.2454C86.197 39.2454 86.1377 39.2607 86.0754 39.2653L85.9233 39.2807H85.8564L85.7043 39.2929L85.5127 39.3037C81.9314 39.4909 79.5104 42.3726 73.3394 41.8816C67.1683 41.3906 68.2678 39.6888 65.2933 37.4854C63.9977 36.5186 62.5028 36.1458 60.9882 36.1273C60.2096 36.1322 59.4331 36.2066 58.6676 36.3498H58.6508L58.4729 36.3836C58.3528 36.4066 58.2326 36.4312 58.114 36.4573L57.9285 36.4972L57.6532 36.5601L57.3841 36.626L57.2746 36.6521L57.232 36.6629L57.1666 36.6798L56.8625 36.7626L56.5887 36.8424C56.2694 36.9268 55.9805 37.0281 55.6991 37.1125C55.079 37.3225 54.4726 37.5716 53.8834 37.8582L53.8423 37.8782L53.6644 37.9656L53.4424 38.0746L53.0044 38.2971H52.9968L52.5604 38.5257L52.4494 38.584L52.4083 38.6055C52.0814 38.7789 51.7559 38.9569 51.4351 39.1303L51.2176 39.2484C50.8252 39.4602 50.4405 39.6674 50.0725 39.8622L49.9204 39.939L49.6969 40.051C49.6239 40.0893 49.5448 40.1246 49.4764 40.1615L49.2194 40.2857L48.9548 40.4085C49.5038 41.6468 50.8085 44.6712 51.727 47.4762C52.1726 48.8327 52.5254 50.137 52.6607 51.1589C52.7454 51.9193 52.8815 52.673 53.0683 53.4146H70.5565C70.5204 53.0604 70.377 52.7261 70.1459 52.4571C69.5011 51.8096 68.8594 51.34 68.283 51.317C69.3658 48.8496 69.2335 49.3759 70.6614 47.4701C70.7633 47.3351 70.8743 47.1862 70.9929 47.0236C71.8841 45.8666 72.7767 44.7096 74.2032 44.128C75.498 47.5627 77.4333 50.7151 79.9043 53.4146H89.462C88.2454 51.1283 87.3208 48.756 87.26 47.4701C87.2448 47.1141 87.295 46.841 87.4258 46.6768C87.59 45.9617 88.3306 45.4139 88.4903 44.6973L89.1974 45.9049C89.6825 44.8017 90.1782 43.7076 90.566 42.5613C90.9538 41.4151 91.2473 40.2857 91.6001 39.1518C91.5758 39.3543 91.4328 40.2811 91.8039 39.9451C92.0791 39.6965 92.1643 39.0091 92.2494 38.6669C92.3285 38.3487 92.397 38.028 92.4547 37.7048C91.1865 37.8091 90.0961 38.2863 88.805 38.693ZM62.7856 51.3661H62.5743C61.1113 51.3446 60.1138 51.4106 60.0909 51.2756C60.0742 51.1758 59.2606 49.1641 58.9291 47.4747C58.8163 46.9842 58.7748 46.4797 58.8059 45.9771C58.9839 44.3444 58.5626 43.7183 58.5626 43.7183L59.2713 42.3542C59.2713 42.3542 58.5216 40.9225 58.2235 39.9865C61.3607 40.1308 63.438 40.2934 65.3967 40.6141C64.6151 42.8422 63.9885 45.1454 63.4046 47.4747C63.3438 47.7125 63.286 47.9488 63.2267 48.1852C63.3574 50.3672 63.6753 49.3038 62.7856 51.3661Z" fill="#00010D"/>
<path d="M99.5976 34.754C99.5869 35.133 99.5702 35.5105 99.5383 35.8895C99.3695 35.5642 99.2189 35.2328 99.082 34.8967C99.2463 34.8446 99.4151 34.797 99.5976 34.754Z" fill="#00010D"/>
<path d="M102.006 34.2016C101.949 34.3439 101.908 34.4929 101.886 34.6451C101.892 34.5107 101.85 34.3787 101.769 34.2722L102.006 34.2016Z" fill="#00010D"/>
<path d="M111.897 28.7942L111.847 28.8494L111.78 28.9169V28.9031L111.833 28.8494L111.897 28.7942Z" fill="#00010D"/>
<path d="M112.656 29.6719L110.752 30.5404C110.162 30.8089 109.549 31.1772 108.906 31.2892C108.721 31.3192 108.534 31.3346 108.346 31.3352C109.107 30.8749 109.867 30.3685 110.604 29.8192L110.72 29.7333L110.822 29.6811L110.898 29.6213L110.881 29.6044C111.024 29.5077 111.164 29.4064 111.301 29.2975L112.656 29.6719Z" fill="#00010D"/>
<path d="M117.127 22.4369V23.1796C116.933 23.3158 116.73 23.4378 116.518 23.5448C116.622 23.3744 116.721 23.201 116.823 23.0277C116.839 22.9985 116.855 22.9724 116.868 22.9433C116.872 22.9374 116.875 22.9313 116.877 22.9248C116.915 22.8558 116.952 22.7898 116.985 22.7208C117.01 22.6747 117.032 22.6287 117.055 22.5827L117.127 22.4369Z" fill="#00010D"/>
<path d="M117.127 23.7013V25.0593C116.975 25.2281 116.823 25.3907 116.663 25.5427C116.334 25.8941 115.931 26.1677 115.484 26.3437C115.045 26.5048 114.581 26.5907 114.164 26.804H116.293C115.332 27.2904 114.504 28.1651 113.469 28.4919C112.971 28.6396 112.458 28.7292 111.94 28.7589C113.588 27.4385 115.019 25.8637 116.179 24.0926C116.195 24.0726 116.208 24.0496 116.222 24.0281L116.255 23.9929V23.9775C116.26 23.9685 116.266 23.9598 116.272 23.9514C116.338 23.8501 116.4 23.7504 116.462 23.6445C116.679 23.7016 116.904 23.7208 117.127 23.7013Z" fill="#00010D"/>
<path d="M37.5768 59.4466C37.7289 60.1171 36.7115 61.0562 36.7115 61.0562C36.7437 61.2993 36.6973 61.5463 36.5792 61.7606C36.4271 62.0536 36.1047 61.7958 35.9572 61.6562C36.0439 61.7667 36.0911 61.937 35.3824 61.7943C34.3848 61.5933 33.886 59.6461 33.886 59.6461C33.886 59.6461 32.1007 56.4237 30.4979 53.4146C29.923 52.3405 29.3726 51.2878 28.9331 50.4209C28.2776 49.1242 28.1073 48.1606 28.1438 47.4701H36.7115C35.314 48.4828 34.1795 49.4127 34.0198 49.7518C33.7887 50.2383 34.9323 51.8801 36.015 53.4146C36.7952 54.5286 37.5357 55.5859 37.6878 56.1076C38.0543 57.3474 37.5722 58.0364 37.887 58.5627C38.2018 59.089 37.5768 59.4466 37.5768 59.4466Z" fill="#00010D"/>
<path d="M70.9275 54.9414C70.8763 55.1986 70.7348 55.4285 70.5291 55.5889C70.1748 55.8805 66.0962 55.925 66.0962 55.925L65.9943 55.9449C65.2112 57.4794 65.2659 58.0824 64.3748 59.6276C62.9727 61.6838 60.8057 62.5845 58.6402 63.8704C57.7475 64.5134 57.3658 65.4049 57.1103 66.4406C56.9841 66.9562 56.35 67.0836 55.9637 67.2079C54.6894 67.8508 53.2888 68.4937 51.8867 68.2375V68.7515C51.2495 68.7515 51.2495 67.8508 51.2495 67.3368C51.505 66.436 51.8867 65.7946 52.6516 65.2791C54.1723 64.1221 55.7098 63.2229 57.2381 62.0659C57.8858 61.5134 58.4445 60.8627 58.8941 60.1371C59.0219 60.0082 58.8941 59.7504 59.0219 59.623C60.0423 58.0794 60.2126 57.6098 60.8908 56.0477C60.0179 55.9771 59.0127 55.9096 57.6867 55.9219C54.6453 55.948 53.6142 55.3695 53.0759 53.4131C52.8891 52.6715 52.753 51.9178 52.6683 51.1574C52.533 50.1293 52.1802 48.825 51.7346 47.4747H58.9291C59.2606 49.1626 60.0742 51.1758 60.0909 51.2756C60.1137 51.4106 61.1113 51.3446 62.5743 51.3661H62.7856C63.6752 49.3038 63.3544 50.3671 63.2266 48.1821C63.2859 47.9458 63.3437 47.7095 63.4046 47.4716H70.669C69.2411 49.3774 69.3734 48.8526 68.2906 51.3185C68.867 51.3415 69.5072 51.8111 70.1535 52.4586C70.3846 52.7276 70.528 53.062 70.5641 53.4161C70.6214 53.8231 70.6245 54.2359 70.5732 54.6437L70.9275 54.9414Z" fill="#00010D"/>
<path d="M91.9802 62.5523L91.6046 64.162L90.8063 66.2181L90.4747 65.2576V67.1358L89.7859 67.1803L89.3874 68.0518L88.6575 68.5889L88.2971 71.13L85.9932 71.5335L81.606 71.8021L81.3216 71.1453L80.8563 71.8174L77.9304 71.8389L77.9973 71.1913L77.5533 71.8619L76.6226 71.9739L76.615 71.9939C76.615 71.9708 76.6682 71.8281 76.8903 71.2128C77.2446 70.2292 78.3958 70.2737 81.1482 69.2901C83.9007 68.3065 86.3734 63.1661 86.3734 63.1661L85.975 59.4082L84.6474 57.1326C82.8826 56.1572 81.2843 54.9025 79.9134 53.4161C78.2628 51.6294 76.8531 49.6306 75.7208 47.4716H87.2691C87.3299 48.7575 88.2606 51.1298 89.4711 53.4161C90.1127 54.6434 90.8404 55.8229 91.6487 56.9454C94.1077 60.3074 91.9802 62.5523 91.9802 62.5523Z" fill="#00010D"/>
<path d="M117.452 21.2416C117.42 21.2953 117.391 21.349 117.359 21.4027H117.099V14.4316L117.127 14.5099C117.583 15.9062 117.804 17.4115 117.223 18.8064L118.463 17.7783C118.711 19.0503 118.064 20.1644 117.452 21.2416Z" fill="#011640"/>
<path d="M119.342 19.549C119.289 19.8521 119.213 20.1507 119.114 20.4421C119.048 20.639 118.972 20.8321 118.885 21.0206V21.0206C118.883 21.0267 118.88 21.0324 118.876 21.0375C118.815 21.1725 118.748 21.3045 118.676 21.4334L118.4 21.418C118.083 21.4057 117.755 21.4027 117.51 21.4011C117.618 21.2814 117.731 21.1648 117.845 21.0513C118.346 20.548 118.908 20.0815 119.342 19.549Z" fill="#011640"/>
</g>
<defs>
<radialGradient id="paint0_radial" cx="0" cy="0" r="1" gradientUnits="userSpaceOnUse" gradientTransform="translate(50.5333 21.2416) scale(8.13429 8.20784)">
<stop stop-color="white"/>
<stop offset="0.73" stop-color="white"/>
<stop offset="1" stop-color="#0378A6"/>
</radialGradient>
<clipPath id="clip0">
<rect width="119.342" height="72" fill="white"/>
</clipPath>
</defs>
</svg>
